<svg width="25" height="19" viewBox="0 0 25 19" fill="none" xmlns="http://www.w3.org/2000/svg">
<path fill-rule="evenodd" clip-rule="evenodd" d="M0 1.58333C0 0.708882 0.699555 0 1.5625 0H23.4375C24.3004 0 25 0.708882 25 1.58333C25 2.45778 24.3004 3.16667 23.4375 3.16667H1.5625C0.699555 3.16667 0 2.45778 0 1.58333ZM0 9.5C0 8.62555 0.699555 7.91667 1.5625 7.91667H23.4375C24.3004 7.91667 25 8.62555 25 9.5C25 10.3745 24.3004 11.0833 23.4375 11.0833H1.5625C0.699555 11.0833 0 10.3745 0 9.5ZM0 17.4167C0 16.5422 0.699555 15.8333 1.5625 15.8333H23.4375C24.3004 15.8333 25 16.5422 25 17.4167C25 18.2911 24.3004 19 23.4375 19H1.5625C0.699555 19 0 18.2911 0 17.4167Z" fill="#333333"/>
</svg>
