<svg width="25" height="25" viewBox="0 0 25 25" fill="none" xmlns="http://www.w3.org/2000/svg">
<path d="M21.9518 0.523029C22.6492 -0.174333 23.7796 -0.174312 24.477 0.523029C25.1743 1.2204 25.1743 2.3508 24.477 3.04817L15.0251 12.5L24.477 21.9518L24.599 22.0879C25.171 22.7892 25.1307 23.8232 24.477 24.477C23.8232 25.1307 22.7892 25.171 22.0879 24.599L21.9518 24.477L12.5 15.0251L3.04817 24.477C2.3508 25.1743 1.2204 25.1743 0.523029 24.477C-0.174312 23.7796 -0.174333 22.6492 0.523029 21.9518L9.97486 12.5L0.523029 3.04817C-0.174343 2.3508 -0.174343 1.2204 0.523029 0.523029C1.2204 -0.174343 2.3508 -0.174343 3.04817 0.523029L12.5 9.97486L21.9518 0.523029Z" fill="#333333"/>
</svg>
