<svg width="76" height="41" viewBox="0 0 76 41" fill="none" xmlns="http://www.w3.org/2000/svg">
<path d="M50.5471 29.2502V0.375977H62.86C66.4191 0.375977 69.2326 1.05272 71.3004 2.4062C73.3682 3.75968 74.4021 5.68337 74.4021 8.17729C74.4021 9.74382 73.8194 11.0472 72.6539 12.0873C71.4884 13.1275 69.8717 13.8293 67.8039 14.1928C69.5334 14.3181 71.0059 14.7128 72.2215 15.3771C73.4497 16.0287 74.3833 16.8747 75.0225 17.9148C75.6742 18.955 76 20.108 76 21.3737C76 23.0154 75.5614 24.4253 74.6841 25.6033C73.8194 26.7814 72.5474 27.6837 70.8681 28.3103C69.2013 28.9369 67.1648 29.2502 64.7586 29.2502H50.5471ZM58.01 23.2536H64.7586C65.874 23.2536 66.745 22.9904 67.3716 22.464C68.0107 21.9251 68.3303 21.192 68.3303 20.2646C68.3303 19.237 68.0107 18.4286 67.3716 17.8396C66.745 17.2506 65.874 16.9561 64.7586 16.9561H58.01V23.2536ZM58.01 12.2565H63.0292C63.8312 12.2565 64.5142 12.1437 65.0782 11.9182C65.6547 11.68 66.0933 11.3417 66.3941 10.903C66.7074 10.4644 66.864 9.94433 66.864 9.34279C66.864 8.453 66.5068 7.75746 65.7925 7.25617C65.0782 6.75488 64.1007 6.50424 62.86 6.50424H58.01V12.2565Z" fill="#42B0FF"/>
<path d="M30.826 40.0781C29.8109 40.0781 28.8585 39.9966 27.9687 39.8337C27.0914 39.6833 26.3646 39.4891 25.7881 39.2509L27.5927 33.2731C28.5326 33.5613 29.3786 33.718 30.1305 33.743C30.895 33.7681 31.5529 33.5926 32.1043 33.2167C32.6683 32.8407 33.1257 32.2016 33.4766 31.2992L33.9466 30.0774L23.5887 0.375977H32.0103L37.9882 21.5805H38.289L44.3232 0.375977H52.8013L41.5787 32.3708C41.0398 33.9247 40.3067 35.2782 39.3793 36.4312C38.4644 37.5967 37.3052 38.4927 35.9016 39.1194C34.498 39.7585 32.8061 40.0781 30.826 40.0781Z" fill="#42B0FF"/>
<path d="M14.2115 29.8142C11.2539 29.8142 8.7099 29.1876 6.57942 27.9343C4.46147 26.6686 2.83228 24.9141 1.69185 22.6708C0.56395 20.4275 0 17.8459 0 14.9259C0 11.9683 0.570216 9.37411 1.71065 7.14337C2.86361 4.9001 4.49907 3.15185 6.61702 1.89863C8.73496 0.632878 11.2539 0 14.1739 0C16.6929 0 18.8986 0.457425 20.791 1.37228C22.6833 2.28713 24.1809 3.57168 25.2838 5.22594C26.3866 6.88019 26.9944 8.82269 27.1072 11.0534H19.5503C19.3372 9.61222 18.7733 8.45299 17.8584 7.57573C16.9561 6.68594 15.7718 6.24105 14.3055 6.24105C13.0648 6.24105 11.9808 6.57942 11.0534 7.25616C10.1386 7.92037 9.42423 8.89162 8.91041 10.1699C8.39659 11.4482 8.13968 12.9959 8.13968 14.8131C8.13968 16.6553 8.39033 18.2219 8.89162 19.5127C9.40544 20.8035 10.126 21.7873 11.0534 22.464C11.9808 23.1408 13.0648 23.4791 14.3055 23.4791C15.2204 23.4791 16.0413 23.2911 16.7681 22.9152C17.5075 22.5392 18.1153 21.9941 18.5916 21.2797C19.0803 20.5529 19.3999 19.6819 19.5503 18.6667H27.1072C26.9819 20.8724 26.3803 22.8149 25.3026 24.4942C24.2373 26.161 22.7648 27.4644 20.885 28.4043C19.0051 29.3442 16.7807 29.8142 14.2115 29.8142Z" fill="#42B0FF"/>
</svg>
