<svg width="25" height="26" viewBox="0 0 25 26" fill="none" xmlns="http://www.w3.org/2000/svg">
<path d="M6.94444 19.6664V19.5972C6.94444 18.8302 7.56627 18.2083 8.33333 18.2083C9.10039 18.2083 9.72222 18.8302 9.72222 19.5972V19.6664C9.72222 20.4672 9.72262 20.9847 9.75477 21.3781C9.78555 21.7543 9.83911 21.8938 9.87413 21.9627C10.0079 22.2252 10.2203 22.4391 10.4804 22.5717C10.5489 22.6065 10.6888 22.6589 11.065 22.6897C11.458 22.7218 11.9747 22.7222 12.774 22.7222H19.1705C19.9693 22.7222 20.4855 22.7217 20.8781 22.6897C21.2535 22.659 21.394 22.6066 21.4627 22.5717C21.7247 22.4381 21.9389 22.2246 22.0717 21.964C22.1066 21.8955 22.1589 21.7558 22.1897 21.3794C22.2218 20.9868 22.2222 20.471 22.2222 19.6718V6.32954C22.2222 5.5303 22.2218 5.01353 22.1897 4.62056C22.1589 4.24437 22.1065 4.10445 22.0717 4.03597C21.9393 3.77614 21.7255 3.56362 21.4627 3.42969C21.3938 3.39464 21.2545 3.34113 20.8781 3.31033C20.4849 3.27819 19.9672 3.27778 19.1664 3.27778H12.778C11.9773 3.27778 11.46 3.27954 11.0663 3.31169C10.6888 3.34253 10.549 3.39475 10.4804 3.42969C10.2191 3.56284 10.0073 3.77471 9.87413 4.03597C9.83918 4.10456 9.78697 4.24441 9.75613 4.62191C9.72397 5.0156 9.72222 5.53285 9.72222 6.33361V6.40142C9.72189 7.16821 9.10019 7.79031 8.33333 7.79031C7.56647 7.79031 6.94477 7.16821 6.94444 6.40142V6.33361C6.94444 5.57866 6.94296 4.9284 6.98649 4.3954C7.03135 3.84641 7.13107 3.30007 7.39882 2.77458C7.79826 1.99075 8.43518 1.35382 9.21902 0.954379C9.74451 0.686629 10.2908 0.586918 10.8398 0.542053C11.3728 0.498519 12.0231 0.500006 12.778 0.500006H19.1664C19.9213 0.500006 20.5719 0.498508 21.1046 0.542053C21.6534 0.586958 22.1989 0.686779 22.7241 0.954379C23.5064 1.35303 24.1454 1.98924 24.5456 2.77458C24.8132 3.29974 24.9131 3.84567 24.9579 4.39405C25.0015 4.92639 25 5.57611 25 6.32954V19.6718C25 20.4251 25.0015 21.0739 24.9579 21.606C24.9131 22.1543 24.8132 22.7004 24.5456 23.2254C24.1458 24.0098 23.5071 24.6466 22.7241 25.0456C22.199 25.3132 21.653 25.4131 21.1046 25.4579C20.5726 25.5014 19.9236 25.5 19.1705 25.5H12.774C12.0206 25.5 11.3708 25.5014 10.8385 25.4579C10.2901 25.4131 9.74418 25.3132 9.21902 25.0456C8.43395 24.6455 7.79761 24.0067 7.39882 23.2241C7.13125 22.6989 7.03138 22.1534 6.98649 21.6046C6.94295 21.0718 6.94444 20.4213 6.94444 19.6664ZM11.518 7.85135C12.0265 7.34285 12.8307 7.31147 13.3762 7.7564L13.482 7.85135L17.6487 12.018C18.191 12.5604 18.191 13.4396 17.6487 13.982L13.482 18.1487C12.9396 18.691 12.0604 18.691 11.518 18.1487C10.9756 17.6063 10.9756 16.7271 11.518 16.1847L13.3138 14.3889H1.38889C0.621827 14.3889 0 13.7671 0 13C0 12.2329 0.621827 11.6111 1.38889 11.6111H13.3138L11.518 9.81532L11.4231 9.70953C10.9781 9.16401 11.0095 8.35984 11.518 7.85135Z" fill="#333333"/>
</svg>
