<svg width="15" height="14" viewBox="0 0 15 14" fill="none" xmlns="http://www.w3.org/2000/svg">
<path fill-rule="evenodd" clip-rule="evenodd" d="M5.25 2.02941C4.00736 2.02941 3 3.05652 3 4.32353C3 5.59054 4.00736 6.61765 5.25 6.61765C6.49264 6.61765 7.5 5.59054 7.5 4.32353C7.5 3.05652 6.49264 2.02941 5.25 2.02941ZM1.5 4.32353C1.5 2.21185 3.17893 0.5 5.25 0.5C7.32107 0.5 9 2.21185 9 4.32353C9 6.43521 7.32107 8.14706 5.25 8.14706C3.17893 8.14706 1.5 6.43521 1.5 4.32353ZM9 1.26471C9 0.84237 9.33579 0.5 9.75 0.5C11.8211 0.5 13.5 2.21185 13.5 4.32353C13.5 6.43521 11.8211 8.14706 9.75 8.14706C9.33579 8.14706 9 7.80469 9 7.38235C9 6.96002 9.33579 6.61765 9.75 6.61765C10.9926 6.61765 12 5.59054 12 4.32353C12 3.05652 10.9926 2.02941 9.75 2.02941C9.33579 2.02941 9 1.68704 9 1.26471ZM1.65199 9.93611C2.60566 9.28786 3.87994 8.91177 5.25 8.91177C6.62006 8.91177 7.89434 9.28786 8.84801 9.93611C9.79643 10.5808 10.5 11.5554 10.5 12.7353C10.5 13.1576 10.1642 13.5 9.75 13.5C9.33579 13.5 9 13.1576 9 12.7353C9 12.2259 8.69621 11.671 8.01595 11.2087C7.34095 10.7498 6.36522 10.4412 5.25 10.4412C4.13478 10.4412 3.15905 10.7498 2.48404 11.2087C1.80379 11.671 1.5 12.2259 1.5 12.7353C1.5 13.1576 1.16421 13.5 0.75 13.5C0.335786 13.5 0 13.1576 0 12.7353C0 11.5554 0.703567 10.5808 1.65199 9.93611ZM10.52 9.67508C10.615 9.26401 11.0188 9.00929 11.422 9.10615C13.2999 9.55731 15 10.8689 15 12.7352C15 13.1576 14.6642 13.4999 14.25 13.4999C13.8358 13.4999 13.5 13.1576 13.5 12.7352C13.5 11.938 12.6957 10.9835 11.078 10.5948C10.6748 10.4979 10.425 10.0862 10.52 9.67508Z" fill="#42B0FF"/>
</svg>
